<svg xmlns="http://www.w3.org/2000/svg" viewBox="0 0 200 200">
  <defs>
    <linearGradient id="grain" x1="0" y1="0" x2="1" y2="1">
      <stop offset="0%" stop-color="#fde68a"/>
      <stop offset="100%" stop-color="#ca8a04"/>
    </linearGradient>
  </defs>
  <rect width="200" height="200" rx="18" fill="#fbfaf6"/>
  <ellipse cx="100" cy="178" rx="58" ry="11" fill="#a8a29e"/>
  <g fill="none" stroke="#b45309" stroke-width="8" stroke-linecap="round">
    <path d="M70 170 C68 132 66 100 68 58"/>
    <path d="M100 172 C100 130 100 96 102 50"/>
    <path d="M130 170 C132 132 134 100 132 58"/>
  </g>
  <g fill="url(#grain)">
    <ellipse cx="68" cy="62" rx="9" ry="5" transform="rotate(-20 68 62)"/>
    <ellipse cx="82" cy="66" rx="9" ry="5" transform="rotate(14 82 66)"/>
    <ellipse cx="60" cy="78" rx="9" ry="5" transform="rotate(-12 60 78)"/>
    <ellipse cx="76" cy="82" rx="9" ry="5" transform="rotate(12 76 82)"/>
    <ellipse cx="102" cy="56" rx="9" ry="5" transform="rotate(-16 102 56)"/>
    <ellipse cx="116" cy="64" rx="9" ry="5" transform="rotate(14 116 64)"/>
    <ellipse cx="94" cy="70" rx="9" ry="5" transform="rotate(-10 94 70)"/>
    <ellipse cx="110" cy="78" rx="9" ry="5" transform="rotate(10 110 78)"/>
    <ellipse cx="102" cy="90" rx="9" ry="5" transform="rotate(-8 102 90)"/>
    <ellipse cx="134" cy="62" rx="9" ry="5" transform="rotate(16 134 62)"/>
    <ellipse cx="122" cy="72" rx="9" ry="5" transform="rotate(-12 122 72)"/>
    <ellipse cx="136" cy="84" rx="9" ry="5" transform="rotate(10 136 84)"/>
  </g>
</svg>